  0
SECTION
  2
BLOCKS
  0
ENDSEC
  0
SECTION
  2
ENTITIES
  0
LINE
  8
0
 10
-0.159714
 20
6.30418
 11
1.78824
 21
12.2994
  0
LINE
  8
0
 10
1.78824
 20
12.2994
 11
0.456757
 21
12.732
  0
LINE
  8
0
 10
0.456757
 20
12.732
 11
-1.4912
 21
6.7368
  0
LINE
  8
0
 10
-1.4912
 20
6.7368
 11
-2.27127
 21
6.99026
  0
LINE
  8
0
 10
-2.27127
 20
6.99026
 11
-2.75339
 21
6.32669
  0
LINE
  8
0
 10
-2.75339
 20
6.32669
 11
-7.8532
 21
10.0319
  0
LINE
  8
0
 10
-7.8532
 20
10.0319
 11
-8.6761
 21
8.89929
  0
LINE
  8
0
 10
-8.6761
 20
8.89929
 11
-3.57628
 21
5.19406
  0
LINE
  8
0
 10
-3.57628
 20
5.19406
 11
-4.39919
 21
4.06143
  0
LINE
  8
0
 10
-4.39919
 20
4.06143
 11
-9.49901
 21
7.76668
  0
LINE
  8
0
 10
-9.49901
 20
7.76668
 11
-10.3219
 21
6.63405
  0
LINE
  8
0
 10
-10.3219
 20
6.63405
 11
-5.22208
 21
2.92882
  0
LINE
  8
0
 10
-5.22208
 20
2.92882
 11
-6.04498
 21
1.79619
  0
LINE
  8
0
 10
-6.04498
 20
1.79619
 11
-11.1448
 21
5.50142
  0
LINE
  8
0
 10
-11.1448
 20
5.50142
 11
-11.9677
 21
4.3688
  0
LINE
  8
0
 10
-11.9677
 20
4.3688
 11
-6.86789
 21
0.663559
  0
LINE
  8
0
 10
-6.86789
 20
0.663559
 11
-7.34999
 21
0
  0
LINE
  8
0
 10
-7.34999
 20
0
 11
-6.86789
 21
-0.663559
  0
LINE
  8
0
 10
-6.86789
 20
-0.663559
 11
-11.9677
 21
-4.3688
  0
LINE
  8
0
 10
-11.9677
 20
-4.3688
 11
-11.1448
 21
-5.50143
  0
LINE
  8
0
 10
-11.1448
 20
-5.50143
 11
-6.04498
 21
-1.79619
  0
LINE
  8
0
 10
-6.04498
 20
-1.79619
 11
-5.22208
 21
-2.92882
  0
LINE
  8
0
 10
-5.22208
 20
-2.92882
 11
-10.3219
 21
-6.63405
  0
LINE
  8
0
 10
-10.3219
 20
-6.63405
 11
-9.49901
 21
-7.76668
  0
LINE
  8
0
 10
-9.49901
 20
-7.76668
 11
-4.39919
 21
-4.06143
  0
LINE
  8
0
 10
-4.39919
 20
-4.06143
 11
-3.57628
 21
-5.19406
  0
LINE
  8
0
 10
-3.57628
 20
-5.19406
 11
-8.6761
 21
-8.89929
  0
LINE
  8
0
 10
-8.6761
 20
-8.89929
 11
-7.8532
 21
-10.0319
  0
LINE
  8
0
 10
-7.8532
 20
-10.0319
 11
-2.75339
 21
-6.32669
  0
LINE
  8
0
 10
-2.75339
 20
-6.32669
 11
-2.27127
 21
-6.99026
  0
LINE
  8
0
 10
-2.27127
 20
-6.99026
 11
-1.4912
 21
-6.7368
  0
LINE
  8
0
 10
-1.4912
 20
-6.7368
 11
0.456757
 21
-12.732
  0
LINE
  8
0
 10
0.456757
 20
-12.732
 11
1.78824
 21
-12.2994
  0
LINE
  8
0
 10
1.78824
 20
-12.2994
 11
-0.159714
 21
-6.30418
  0
LINE
  8
0
 10
-0.159714
 20
-6.30418
 11
1.17175
 21
-5.87155
  0
LINE
  8
0
 10
1.17175
 20
-5.87155
 11
3.11971
 21
-11.8667
  0
LINE
  8
0
 10
3.11971
 20
-11.8667
 11
4.45119
 21
-11.4341
  0
LINE
  8
0
 10
4.45119
 20
-11.4341
 11
2.50323
 21
-5.43893
  0
LINE
  8
0
 10
2.50323
 20
-5.43893
 11
3.83472
 21
-5.0063
  0
LINE
  8
0
 10
3.83472
 20
-5.0063
 11
5.78267
 21
-11.0015
  0
LINE
  8
0
 10
5.78267
 20
-11.0015
 11
7.11415
 21
-10.5689
  0
LINE
  8
0
 10
7.11415
 20
-10.5689
 11
5.16618
 21
-4.57368
  0
LINE
  8
0
 10
5.16618
 20
-4.57368
 11
5.94627
 21
-4.32022
  0
LINE
  8
0
 10
5.94627
 20
-4.32022
 11
5.94627
 21
-3.5
  0
LINE
  8
0
 10
5.94627
 20
-3.5
 11
12.25
 21
-3.49998
  0
LINE
  8
0
 10
12.25
 20
-3.49998
 11
12.25
 21
-2.09999
  0
LINE
  8
0
 10
12.25
 20
-2.09999
 11
5.94627
 21
-2.09999
  0
LINE
  8
0
 10
5.94627
 20
-2.09999
 11
5.94627
 21
-0.699997
  0
LINE
  8
0
 10
5.94627
 20
-0.699997
 11
12.25
 21
-0.699997
  0
LINE
  8
0
 10
12.25
 20
-0.699997
 11
12.25
 21
0.699997
  0
LINE
  8
0
 10
12.25
 20
0.699997
 11
5.94627
 21
0.699997
  0
LINE
  8
0
 10
5.94627
 20
0.699997
 11
5.94627
 21
2.09999
  0
LINE
  8
0
 10
5.94627
 20
2.09999
 11
12.25
 21
2.09999
  0
LINE
  8
0
 10
12.25
 20
2.09999
 11
12.25
 21
3.5
  0
LINE
  8
0
 10
12.25
 20
3.5
 11
5.94627
 21
3.49998
  0
LINE
  8
0
 10
5.94627
 20
3.49998
 11
5.94627
 21
4.32022
  0
LINE
  8
0
 10
5.94627
 20
4.32022
 11
5.16618
 21
4.57368
  0
LINE
  8
0
 10
5.16618
 20
4.57368
 11
7.11415
 21
10.5689
  0
LINE
  8
0
 10
7.11415
 20
10.5689
 11
5.78267
 21
11.0015
  0
LINE
  8
0
 10
5.78267
 20
11.0015
 11
3.83472
 21
5.0063
  0
LINE
  8
0
 10
3.83472
 20
5.0063
 11
2.50323
 21
5.43893
  0
LINE
  8
0
 10
2.50323
 20
5.43893
 11
4.45119
 21
11.4341
  0
LINE
  8
0
 10
4.45119
 20
11.4341
 11
3.11971
 21
11.8667
  0
LINE
  8
0
 10
3.11971
 20
11.8667
 11
1.17175
 21
5.87155
  0
LINE
  8
0
 10
1.17175
 20
5.87155
 11
-0.159714
 21
6.30418
  0
LINE
  8
0
 10
-0.351334
 20
-3.34178
 11
-0.798325
 21
-3.19655
  0
LINE
  8
0
 10
-0.798325
 20
-3.19655
 11
-1.19516
 21
-2.9447
  0
LINE
  8
0
 10
-1.19516
 20
-2.9447
 11
-1.51689
 21
-2.60208
  0
LINE
  8
0
 10
-1.51689
 20
-2.60208
 11
-1.74332
 21
-2.19023
  0
LINE
  8
0
 10
-1.74332
 20
-2.19023
 11
-1.86021
 21
-1.73499
  0
LINE
  8
0
 10
-1.86021
 20
-1.73499
 11
-1.86021
 21
-1.265
  0
LINE
  8
0
 10
-1.86021
 20
-1.265
 11
-1.74332
 21
-0.809753
  0
LINE
  8
0
 10
-1.74332
 20
-0.809753
 11
-1.51689
 21
-0.397888
  0
LINE
  8
0
 10
-1.51689
 20
-0.397888
 11
-1.19516
 21
-0.0552826
  0
LINE
  8
0
 10
-1.19516
 20
-0.0552826
 11
-1.10805
 21
0
  0
LINE
  8
0
 10
-1.10805
 20
0
 11
-1.19516
 21
0.0552826
  0
LINE
  8
0
 10
-1.19516
 20
0.0552826
 11
-1.51689
 21
0.397888
  0
LINE
  8
0
 10
-1.51689
 20
0.397888
 11
-1.74332
 21
0.809753
  0
LINE
  8
0
 10
-1.74332
 20
0.809753
 11
-1.86021
 21
1.265
  0
LINE
  8
0
 10
-1.86021
 20
1.265
 11
-1.86021
 21
1.73499
  0
LINE
  8
0
 10
-1.86021
 20
1.73499
 11
-1.74332
 21
2.19023
  0
LINE
  8
0
 10
-1.74332
 20
2.19023
 11
-1.51689
 21
2.60208
  0
LINE
  8
0
 10
-1.51689
 20
2.60208
 11
-1.19516
 21
2.9447
  0
LINE
  8
0
 10
-1.19516
 20
2.9447
 11
-0.798325
 21
3.19655
  0
LINE
  8
0
 10
-0.798325
 20
3.19655
 11
-0.351334
 21
3.34178
  0
LINE
  8
0
 10
-0.351334
 20
3.34178
 11
0.117722
 21
3.37129
  0
LINE
  8
0
 10
0.117722
 20
3.37129
 11
0.579391
 21
3.28322
  0
LINE
  8
0
 10
0.579391
 20
3.28322
 11
1.00467
 21
3.0831
  0
LINE
  8
0
 10
1.00467
 20
3.0831
 11
1.36681
 21
2.78352
  0
LINE
  8
0
 10
1.36681
 20
2.78352
 11
1.64307
 21
2.40327
  0
LINE
  8
0
 10
1.64307
 20
2.40327
 11
1.81609
 21
1.96628
  0
LINE
  8
0
 10
1.81609
 20
1.96628
 11
1.875
 21
1.5
  0
LINE
  8
0
 10
1.875
 20
1.5
 11
1.81609
 21
1.03369
  0
LINE
  8
0
 10
1.81609
 20
1.03369
 11
1.64307
 21
0.59671
  0
LINE
  8
0
 10
1.64307
 20
0.59671
 11
1.36681
 21
0.216461
  0
LINE
  8
0
 10
1.36681
 20
0.216461
 11
1.10513
 21
0
  0
LINE
  8
0
 10
1.10513
 20
0
 11
1.36681
 21
-0.216461
  0
LINE
  8
0
 10
1.36681
 20
-0.216461
 11
1.64307
 21
-0.59671
  0
LINE
  8
0
 10
1.64307
 20
-0.59671
 11
1.81609
 21
-1.03369
  0
LINE
  8
0
 10
1.81609
 20
-1.03369
 11
1.875
 21
-1.5
  0
LINE
  8
0
 10
1.875
 20
-1.5
 11
1.81609
 21
-1.96628
  0
LINE
  8
0
 10
1.81609
 20
-1.96628
 11
1.64307
 21
-2.40327
  0
LINE
  8
0
 10
1.64307
 20
-2.40327
 11
1.36681
 21
-2.78352
  0
LINE
  8
0
 10
1.36681
 20
-2.78352
 11
1.00467
 21
-3.0831
  0
LINE
  8
0
 10
1.00467
 20
-3.0831
 11
0.579391
 21
-3.28322
  0
LINE
  8
0
 10
0.579391
 20
-3.28322
 11
0.117722
 21
-3.37129
  0
LINE
  8
0
 10
0.117722
 20
-3.37129
 11
-0.351334
 21
-3.34178
  0
ENDSEC
  0
SECTION
  2
OBJECTS
  0
DICTIONARY
  0
ENDSEC
  0
EOF
